<?xml version="1.0" standalone="no"?>
<!DOCTYPE svg PUBLIC "-//W3C//DTD SVG 20010904//EN"
 "http://www.w3.org/TR/2001/REC-SVG-20010904/DTD/svg10.dtd">
<svg version="1.0" xmlns="http://www.w3.org/2000/svg"
 width="1080.000000pt" height="1080.000000pt" viewBox="0 0 1080.000000 1080.000000"
 preserveAspectRatio="xMidYMid meet">

<g transform="translate(0.000000,1080.000000) scale(0.100000,-0.100000)"
fill="#000000" stroke="none">
<path d="M5230 8560 c0 -5 -11 -10 -25 -10 -14 0 -25 -6 -25 -12 0 -9 -4 -8
-11 2 -8 11 -12 12 -16 3 -2 -7 -13 -13 -24 -13 -10 0 -19 -4 -19 -10 0 -5 -7
-10 -15 -10 -20 0 -85 -65 -85 -84 0 -8 -9 -18 -20 -21 -11 -3 -20 -13 -20
-21 0 -8 -4 -14 -10 -14 -5 0 -10 -25 -10 -55 0 -30 -4 -55 -10 -55 -5 0 -10
-9 -10 -20 0 -11 -4 -20 -10 -20 -15 0 -12 -57 3 -63 9 -4 9 -8 -2 -15 -10 -7
-15 -35 -16 -93 -1 -52 -6 -84 -14 -87 -14 -5 -15 -52 -1 -52 6 0 10 -9 10
-20 0 -11 -4 -20 -10 -20 -5 0 -10 -9 -10 -19 0 -11 -6 -22 -12 -25 -10 -5
-10 -7 0 -12 14 -7 16 -34 2 -34 -5 0 -10 -11 -10 -25 0 -16 -6 -25 -15 -25
-11 0 -15 -12 -15 -50 0 -36 -4 -50 -14 -50 -8 0 -17 -6 -19 -12 -4 -10 -8 -9
-16 2 -8 10 -13 12 -18 4 -5 -6 -29 -14 -55 -18 -27 -4 -48 -11 -48 -17 0 -5
-13 -9 -30 -9 -16 0 -30 -4 -30 -10 0 -5 -9 -10 -20 -10 -11 0 -20 -4 -20 -10
0 -5 -7 -10 -15 -10 -8 0 -15 -4 -15 -10 0 -5 -16 -10 -35 -10 -19 0 -35 -4
-35 -10 0 -5 -5 -10 -11 -10 -16 0 -39 -26 -39 -44 0 -12 -10 -16 -40 -16 -33
0 -40 -3 -40 -20 0 -16 -7 -20 -35 -20 -19 0 -35 -4 -35 -10 0 -5 -7 -10 -15
-10 -8 0 -15 5 -15 10 0 6 -9 10 -20 10 -11 0 -20 7 -20 15 0 9 -9 15 -25 15
-20 0 -25 5 -25 25 0 20 -5 25 -26 25 -17 0 -39 14 -64 40 -21 22 -46 40 -54
40 -9 0 -16 8 -16 19 0 13 -10 20 -31 25 -32 6 -59 27 -59 45 0 6 -9 11 -21
11 -22 0 -49 22 -49 39 0 6 -6 11 -13 11 -7 0 -19 9 -27 20 -8 11 -20 20 -27
20 -7 0 -13 6 -13 14 0 8 -11 17 -25 20 -14 4 -25 11 -25 16 0 6 -13 10 -30
10 -16 0 -30 5 -30 10 0 6 -9 10 -20 10 -11 0 -20 5 -20 10 0 6 -28 10 -65 10
-37 0 -65 -4 -65 -10 0 -5 -8 -10 -18 -10 -10 0 -24 -9 -32 -19 -7 -11 -31
-23 -52 -26 -29 -5 -38 -11 -38 -27 0 -23 -22 -48 -43 -48 -22 0 -57 -35 -57
-59 0 -12 -6 -21 -15 -21 -8 0 -15 -4 -15 -10 0 -5 -11 -12 -25 -16 -14 -3
-25 -13 -25 -21 0 -17 -24 -43 -39 -43 -6 0 -11 -9 -11 -20 0 -11 -4 -20 -10
-20 -5 0 -10 -13 -10 -30 0 -27 -3 -30 -30 -30 -23 0 -30 -4 -30 -20 0 -11 -4
-20 -10 -20 -5 0 -10 -9 -10 -20 0 -11 -4 -20 -10 -20 -5 0 -10 -11 -10 -24 0
-13 -6 -27 -12 -30 -10 -5 -10 -7 0 -12 6 -3 12 -14 12 -25 0 -10 5 -19 10
-19 6 0 10 -18 10 -40 0 -22 5 -40 10 -40 6 0 10 -9 10 -20 0 -16 7 -20 30
-20 30 0 41 -14 18 -23 -9 -3 -6 -11 10 -24 12 -11 22 -28 22 -37 0 -9 5 -16
10 -16 6 0 10 -9 10 -20 0 -16 7 -20 33 -21 17 -1 24 -3 15 -6 -22 -5 -24 -23
-3 -23 9 0 15 -9 15 -25 0 -14 4 -25 9 -25 5 0 13 -10 17 -22 9 -28 28 -48 48
-48 9 0 16 -8 16 -20 0 -11 7 -20 15 -20 9 0 18 -12 22 -30 3 -16 9 -30 14
-30 5 0 9 -7 9 -15 0 -9 10 -15 26 -15 34 0 54 -22 54 -59 0 -25 4 -31 23 -31
18 0 19 -2 7 -10 -13 -9 -13 -11 0 -21 11 -8 12 -12 3 -16 -7 -2 -13 -12 -13
-22 0 -9 -9 -23 -20 -31 -11 -8 -20 -22 -20 -32 0 -10 -4 -18 -10 -18 -5 0
-10 -9 -10 -20 0 -11 -4 -20 -10 -20 -5 0 -10 -9 -10 -20 0 -11 -4 -20 -10
-20 -5 0 -10 -9 -10 -20 0 -11 -4 -20 -10 -20 -5 0 -13 -18 -16 -40 -4 -24
-12 -40 -20 -40 -9 0 -14 -12 -14 -35 0 -19 -4 -35 -10 -35 -5 0 -10 -9 -10
-20 0 -11 -4 -20 -10 -20 -5 0 -10 -13 -10 -30 0 -16 -4 -30 -9 -30 -6 0 -13
-21 -17 -47 -9 -59 -18 -68 -77 -77 -31 -5 -47 -12 -47 -22 0 -8 -10 -14 -25
-14 -16 0 -25 6 -25 15 0 9 -9 15 -25 15 -16 0 -25 -6 -25 -15 0 -8 -9 -15
-20 -15 -11 0 -20 -4 -20 -10 0 -5 -9 -10 -20 -10 -11 0 -20 5 -20 10 0 6 -9
10 -20 10 -11 0 -20 -4 -20 -10 0 -5 -7 -10 -15 -10 -8 0 -15 -4 -15 -10 0 -5
-11 -10 -25 -10 -14 0 -25 5 -25 10 0 14 -27 13 -32 -1 -2 -7 -38 -12 -98 -13
-63 -1 -95 -6 -98 -14 -2 -7 -19 -12 -38 -12 -19 0 -34 -4 -34 -10 0 -5 -9
-10 -20 -10 -15 0 -20 -7 -20 -25 0 -20 -5 -25 -24 -25 -37 0 -56 -10 -56 -31
0 -11 -7 -19 -16 -19 -20 0 -44 -24 -44 -44 0 -9 -4 -16 -10 -16 -5 0 -10 -9
-10 -20 0 -11 -4 -20 -10 -20 -5 0 -10 -7 -10 -15 0 -8 -4 -15 -10 -15 -6 0
-10 -80 -10 -220 0 -140 4 -220 10 -220 6 0 10 -10 10 -23 0 -12 9 -29 20 -37
11 -8 20 -20 20 -28 0 -18 25 -42 44 -42 9 0 16 -8 16 -19 0 -21 19 -31 56
-31 19 0 24 -5 24 -25 0 -18 5 -25 20 -25 11 0 20 -4 20 -10 0 -5 6 -10 14
-10 8 0 17 -6 19 -12 4 -10 8 -9 16 2 10 13 12 13 20 1 7 -11 34 -15 102 -16
62 -1 94 -5 97 -13 5 -16 59 -15 66 1 5 10 7 9 12 0 3 -7 12 -13 20 -13 8 0
14 -4 14 -10 0 -5 16 -10 35 -10 19 0 35 5 35 10 0 6 7 10 15 10 8 0 15 -4 15
-10 0 -5 9 -10 20 -10 11 0 20 -7 20 -15 0 -8 7 -15 15 -15 8 0 15 7 15 15 0
9 9 15 25 15 15 0 25 -6 25 -14 0 -10 16 -17 48 -22 61 -9 80 -31 79 -91 0
-27 5 -49 11 -51 7 -2 12 -12 12 -23 0 -10 5 -19 10 -19 6 0 10 -18 10 -40 0
-22 5 -40 10 -40 6 0 10 -7 10 -15 0 -8 6 -15 14 -15 8 0 16 -16 20 -40 3 -22
11 -40 16 -40 6 0 10 -13 10 -30 0 -16 5 -30 10 -30 6 0 10 -8 10 -18 0 -10 9
-24 20 -32 11 -8 20 -23 20 -32 0 -13 10 -20 30 -24 23 -5 30 -12 30 -30 0
-13 -4 -24 -10 -24 -5 0 -10 -9 -10 -20 0 -11 -4 -20 -10 -20 -5 0 -10 -7 -10
-15 0 -8 -4 -15 -10 -15 -5 0 -10 -13 -10 -30 0 -20 -5 -30 -15 -30 -22 0 -73
-52 -57 -58 17 -5 15 -22 -3 -22 -8 0 -15 -4 -15 -10 0 -5 -5 -10 -10 -10 -16
0 -60 -47 -60 -63 0 -8 -7 -17 -15 -21 -11 -4 -14 -13 -9 -31 6 -23 3 -25 -25
-25 -21 0 -31 -5 -31 -15 0 -8 -4 -15 -10 -15 -5 0 -10 -9 -10 -19 0 -11 -7
-26 -15 -35 -8 -8 -15 -20 -15 -26 0 -14 -46 -60 -60 -60 -6 0 -13 -13 -16
-30 -4 -16 -10 -30 -15 -30 -5 0 -9 -13 -9 -30 0 -16 -4 -30 -10 -30 -5 0 -10
-13 -10 -29 0 -16 -6 -32 -12 -35 -10 -5 -10 -7 0 -12 6 -3 12 -20 12 -38 0
-20 7 -37 19 -46 11 -7 23 -31 26 -52 4 -23 12 -38 21 -38 8 0 14 -4 14 -10 0
-5 9 -10 20 -10 13 0 20 -7 20 -20 0 -11 6 -20 13 -20 7 0 19 -9 27 -20 8 -11
20 -20 27 -20 7 0 13 -4 13 -10 0 -5 16 -10 35 -10 32 0 35 -2 35 -29 0 -16
-6 -32 -12 -35 -10 -5 -10 -7 0 -12 7 -3 19 -12 26 -20 8 -8 20 -14 26 -14 18
0 40 -27 40 -50 0 -15 8 -22 30 -27 17 -3 30 -9 30 -14 0 -5 9 -9 20 -9 11 0
20 -4 20 -10 0 -5 9 -10 20 -10 11 0 20 -4 20 -10 0 -6 27 -10 61 -10 62 0 89
13 89 44 0 11 9 16 29 16 59 0 89 11 95 36 5 17 13 24 31 24 14 0 25 5 25 10
0 6 7 10 15 10 8 0 15 7 15 15 0 8 9 15 20 15 11 0 20 5 20 10 0 6 7 10 15 10
8 0 15 5 15 11 0 13 25 39 39 39 5 0 21 11 35 25 14 14 30 25 36 25 14 0 40
25 40 39 0 6 5 11 10 11 6 0 10 7 10 15 0 18 16 20 23 3 4 -10 6 -10 6 0 1 6
12 12 26 12 21 0 25 5 25 30 0 17 5 30 10 30 6 0 10 -4 10 -10 0 -18 18 -11
25 10 5 16 15 20 56 20 27 0 49 -4 49 -10 0 -5 8 -10 18 -10 10 0 24 -9 32
-20 8 -11 22 -20 32 -20 10 0 18 -4 18 -10 0 -5 9 -10 20 -10 11 0 20 -4 20
-9 0 -5 23 -12 50 -16 33 -5 50 -12 50 -21 0 -8 7 -14 15 -14 8 0 15 -4 15
-10 0 -5 16 -10 35 -10 19 0 35 -4 35 -10 0 -5 11 -10 25 -10 14 0 25 -4 25
-9 0 -5 17 -12 37 -16 21 -4 41 -12 45 -18 6 -9 11 -8 18 3 9 13 11 13 20 0 5
-8 10 -21 10 -27 0 -7 5 -13 10 -13 6 0 10 -7 10 -15 0 -8 7 -15 15 -15 8 0
15 -4 15 -10 0 -5 -7 -10 -15 -10 -8 0 -15 -4 -15 -10 0 -5 7 -10 15 -10 9 0
15 -9 15 -25 0 -14 5 -25 10 -25 6 0 10 -7 10 -15 0 -8 -4 -15 -10 -15 -5 0
-10 -9 -10 -20 0 -11 5 -20 10 -20 6 0 10 -7 10 -15 0 -8 5 -15 10 -15 6 0 10
-11 10 -25 0 -14 -4 -25 -10 -25 -13 0 -13 -47 0 -52 5 -1 12 -37 14 -78 2
-42 9 -76 15 -78 14 -5 15 -42 1 -42 -5 0 -10 -9 -10 -20 0 -11 5 -20 10 -20
6 0 10 -9 10 -19 0 -11 6 -22 13 -25 10 -5 10 -7 0 -12 -15 -7 -17 -44 -3 -44
6 0 10 -11 10 -25 0 -14 5 -25 10 -25 6 0 10 -6 10 -14 0 -8 9 -18 20 -21 11
-3 20 -15 20 -26 0 -10 5 -19 10 -19 6 0 10 -9 10 -20 0 -13 7 -20 20 -20 11
0 20 -4 20 -10 0 -5 9 -10 20 -10 11 0 20 -4 20 -10 0 -5 9 -10 19 -10 11 0
22 -6 24 -12 4 -10 8 -9 16 2 7 10 11 11 11 3 0 -7 11 -13 25 -13 14 0 25 -4
25 -10 0 -6 68 -10 185 -10 117 0 185 4 185 10 0 6 7 10 15 10 8 0 15 5 15 10
0 14 37 12 44 -2 5 -11 7 -11 12 0 3 6 14 12 25 12 10 0 19 5 19 10 0 6 9 10
20 10 15 0 20 7 20 26 0 29 21 54 44 54 9 0 16 4 16 9 0 5 9 13 20 16 15 5 20
15 20 40 0 18 5 35 11 37 6 2 12 30 13 63 1 34 7 60 14 63 16 5 15 59 0 66
-10 5 -10 7 0 12 6 3 12 14 12 25 0 10 5 19 10 19 15 0 12 77 -2 84 -10 5 -10
7 0 12 6 3 12 12 12 20 0 8 7 14 15 14 23 0 20 67 -2 73 -17 4 -17 5 0 6 19 1
19 3 21 105 1 45 6 71 14 74 6 2 12 10 12 18 0 8 5 14 10 14 6 0 10 7 10 15 0
8 9 15 19 15 11 0 21 4 23 10 2 5 25 12 53 15 27 2 51 9 53 15 2 5 19 10 38
10 19 0 34 5 34 10 0 6 7 10 15 10 8 0 15 5 15 10 0 6 15 10 34 10 25 0 35 5
39 20 3 12 14 20 26 20 12 0 21 5 21 10 0 6 14 10 30 10 17 0 30 5 30 10 0 6
9 10 20 10 11 0 20 5 20 10 0 6 6 10 13 10 7 0 19 9 27 20 10 14 26 20 52 20
21 0 38 -4 38 -10 0 -5 9 -10 20 -10 11 0 20 -4 20 -10 0 -5 6 -10 14 -10 8 0
18 -9 21 -20 5 -16 15 -20 46 -20 28 0 39 -4 39 -15 0 -8 5 -15 10 -15 6 0 10
-5 10 -10 0 -16 47 -60 63 -60 8 0 17 -7 21 -15 4 -11 13 -14 31 -9 19 5 25 2
25 -10 0 -9 4 -16 9 -16 5 0 12 -11 15 -25 4 -16 13 -25 25 -25 11 0 26 -7 35
-15 8 -8 19 -15 25 -15 5 0 13 -9 16 -20 3 -11 15 -20 26 -20 10 0 19 -6 19
-14 0 -8 9 -18 20 -21 11 -3 20 -11 20 -16 0 -5 9 -9 20 -9 11 0 20 -4 20 -10
0 -5 9 -10 20 -10 11 0 20 -4 20 -10 0 -6 32 -10 75 -10 43 0 75 4 75 10 0 6
8 10 18 10 10 0 24 9 32 20 8 11 24 20 35 21 11 0 14 3 8 6 -35 14 3 53 51 53
34 0 36 2 36 35 0 35 13 47 24 23 5 -10 7 -10 12 0 3 6 12 12 20 12 8 0 14 7
14 15 0 8 7 15 15 15 8 0 15 5 15 11 0 11 25 39 35 39 10 0 55 48 55 60 0 5 7
10 15 10 15 0 20 16 17 53 -1 9 3 17 9 17 16 0 59 47 59 65 0 8 5 15 10 15 6
0 10 28 10 65 0 37 -4 65 -10 65 -5 0 -10 14 -10 30 0 17 -4 30 -10 30 -5 0
-10 9 -10 20 0 13 -7 20 -19 20 -14 0 -21 10 -25 35 -4 21 -13 35 -21 35 -8 0
-15 7 -15 15 0 8 -4 15 -10 15 -5 0 -10 9 -10 20 0 13 -7 20 -20 20 -11 0 -20
5 -20 10 0 6 -8 10 -17 10 -16 0 -16 2 -3 11 11 8 12 12 3 16 -7 2 -13 15 -13
28 0 16 -7 25 -25 29 -16 4 -25 13 -25 26 0 11 -7 20 -15 20 -8 0 -15 5 -15
10 0 6 -9 10 -20 10 -16 0 -20 7 -20 30 0 24 -4 30 -21 30 -15 0 -19 5 -14 19
7 23 -18 51 -46 51 -21 0 -26 26 -7 32 18 6 -15 38 -39 38 -15 0 -16 2 -3 10
13 9 13 11 0 21 -11 8 -12 12 -2 16 6 2 12 15 12 28 0 15 7 26 20 30 11 3 20
15 20 26 0 10 5 19 10 19 6 0 10 9 10 20 0 11 5 20 10 20 6 0 10 10 10 23 0
38 12 67 26 67 8 0 14 10 14 23 0 12 9 29 20 37 11 8 20 25 20 37 0 13 4 23 9
23 5 0 11 23 15 50 4 28 11 50 16 50 6 0 10 23 10 50 0 34 4 50 13 50 7 0 19
9 27 20 8 11 29 23 47 26 19 4 33 12 33 20 0 9 11 14 30 14 20 0 30 -5 30 -15
0 -8 9 -15 20 -15 11 0 20 7 20 15 0 8 7 15 15 15 8 0 15 5 15 10 0 15 67 12
73 -2 4 -10 6 -10 6 0 1 6 10 12 21 12 11 0 20 5 20 10 0 6 11 10 25 10 14 0
25 -4 25 -10 0 -13 47 -13 52 1 2 5 37 12 78 14 41 2 76 9 78 14 2 6 24 11 48
11 24 0 44 5 44 10 0 6 11 10 25 10 20 0 27 6 32 30 4 23 11 30 30 30 24 0 73
40 73 60 0 5 5 10 10 10 6 0 10 20 10 45 0 25 5 45 10 45 6 0 10 7 10 15 0 8
5 15 10 15 6 0 10 77 10 210 0 133 -4 210 -10 210 -5 0 -10 7 -10 15 0 8 -4
15 -10 15 -5 0 -10 14 -10 30 0 17 -4 30 -10 30 -5 0 -10 7 -10 15 0 24 -46
65 -73 65 -19 0 -26 7 -30 30 -4 18 -13 30 -22 30 -8 0 -15 5 -15 10 0 6 -24
10 -54 10 -32 0 -56 5 -58 11 -2 7 -34 13 -78 15 -41 2 -76 8 -78 14 -5 13
-42 13 -42 0 0 -5 -7 -10 -15 -10 -8 0 -15 5 -15 10 0 6 -11 10 -25 10 -14 0
-25 5 -25 10 0 6 -11 10 -25 10 -14 0 -25 -4 -25 -10 0 -5 -11 -10 -25 -10
-14 0 -25 5 -25 10 0 6 -7 10 -15 10 -8 0 -15 7 -15 15 0 8 -4 15 -10 15 -5 0
-10 -7 -10 -15 0 -11 -11 -15 -40 -15 -28 0 -40 4 -40 14 0 10 -16 17 -45 22
-35 5 -45 10 -45 25 0 11 -7 19 -15 19 -8 0 -15 9 -15 19 0 11 -6 22 -12 24
-10 4 -9 8 2 17 11 9 12 13 3 17 -7 2 -15 27 -19 54 -4 27 -10 49 -15 49 -5 0
-9 9 -9 20 0 11 -4 20 -10 20 -5 0 -10 11 -10 25 0 14 -4 25 -10 25 -5 0 -10
11 -10 25 0 15 -6 25 -14 25 -9 0 -16 17 -20 45 -4 25 -11 45 -17 45 -5 0 -9
8 -9 18 0 10 -9 24 -20 32 -11 8 -20 22 -20 32 0 10 -4 18 -10 18 -5 0 -10 18
-10 41 0 33 6 47 30 69 23 21 30 37 30 64 0 25 4 36 15 36 8 0 15 5 15 10 0 6
7 10 15 10 8 0 15 7 15 16 0 20 24 44 45 44 9 0 18 12 21 30 4 18 15 32 27 36
29 9 47 29 47 53 0 11 7 26 15 35 8 8 15 19 15 24 0 6 6 13 13 16 10 5 10 7 0
12 -27 12 -13 34 21 34 28 0 35 4 40 25 4 14 11 25 16 25 6 0 10 9 10 20 0 11
5 20 10 20 6 0 10 9 10 20 0 11 5 20 10 20 6 0 10 23 10 50 0 28 5 50 10 50 6
0 10 16 10 35 0 19 -4 35 -10 35 -5 0 -10 9 -10 20 0 11 -4 20 -10 20 -5 0
-10 7 -10 16 0 9 -8 24 -18 33 -11 9 -22 28 -26 44 -3 15 -12 27 -19 27 -7 0
-19 9 -27 20 -8 11 -22 20 -32 20 -9 0 -20 10 -24 22 -9 31 -29 48 -53 48 -16
0 -21 6 -21 24 0 34 -26 56 -66 56 -42 0 -84 37 -84 75 0 18 -5 25 -20 25 -11
0 -20 5 -20 10 0 6 -18 10 -40 10 -22 0 -40 5 -40 10 0 6 -22 10 -50 10 -27 0
-50 -4 -50 -10 0 -5 -7 -10 -15 -10 -8 0 -15 -4 -15 -10 0 -5 -12 -10 -26 -10
-14 0 -32 -7 -40 -15 -9 -8 -24 -15 -35 -15 -14 0 -19 -7 -19 -25 0 -16 -6
-25 -15 -25 -8 0 -15 -4 -15 -10 0 -5 -16 -12 -35 -16 -19 -3 -35 -10 -35 -15
0 -5 -5 -9 -11 -9 -14 0 -39 -25 -39 -39 0 -6 -11 -11 -24 -11 -17 0 -26 -7
-30 -25 -4 -16 -13 -25 -26 -25 -11 0 -20 -4 -20 -10 0 -5 -9 -10 -20 -10 -13
0 -20 -7 -20 -20 0 -12 -7 -20 -16 -20 -9 0 -29 -13 -44 -30 -15 -16 -33 -30
-39 -30 -6 0 -11 -4 -11 -10 0 -5 -11 -10 -25 -10 -18 0 -25 -5 -25 -20 0 -11
-6 -20 -14 -20 -8 0 -17 -6 -20 -12 -5 -10 -7 -10 -12 0 -3 6 -17 12 -30 12
-14 0 -24 6 -24 14 0 8 -11 17 -25 20 -14 4 -25 11 -25 16 0 6 -13 10 -30 10
-16 0 -30 5 -30 10 0 6 -9 10 -20 10 -11 0 -20 5 -20 10 0 6 -9 10 -20 10 -11
0 -20 5 -20 10 0 6 -7 10 -15 10 -8 0 -15 5 -15 10 0 6 -16 10 -35 10 -19 0
-35 5 -35 10 0 6 -7 10 -15 10 -8 0 -15 5 -15 10 0 6 -13 10 -30 10 -16 0 -30
4 -30 9 0 5 -18 12 -40 16 -22 4 -40 11 -40 16 0 5 -13 9 -30 9 -20 0 -30 5
-30 15 0 8 -4 15 -10 15 -5 0 -10 9 -10 19 0 11 -6 21 -12 24 -8 2 -13 25 -14
63 -1 93 -3 102 -21 107 -17 4 -17 5 0 6 23 1 25 71 2 71 -8 0 -15 7 -15 15 0
8 -4 15 -10 15 -5 0 -10 11 -10 25 0 14 5 25 10 25 6 0 10 7 10 15 0 8 -4 15
-10 15 -5 0 -10 9 -10 20 0 11 -4 20 -10 20 -5 0 -10 9 -10 20 0 11 5 20 10
20 14 0 13 37 -1 42 -6 2 -14 36 -17 76 -2 40 -9 72 -13 72 -5 0 -9 15 -9 34
0 35 -13 46 -51 46 -12 0 -19 7 -19 19 0 11 -7 26 -15 35 -8 8 -15 22 -15 30
0 9 -8 16 -20 16 -11 0 -20 5 -20 10 0 6 -18 10 -40 10 -22 0 -40 -4 -40 -10
0 -23 -18 -8 -23 20 l-6 30 -196 0 c-123 0 -195 -4 -195 -10z m220 -1885 c0
-9 9 -15 25 -15 14 0 25 -4 25 -10 0 -5 23 -10 50 -10 28 0 50 5 50 10 0 6 7
10 15 10 8 0 15 -4 15 -10 0 -5 9 -10 19 -10 11 0 22 -6 24 -12 4 -10 8 -9 16
2 9 12 13 12 19 2 5 -7 37 -15 73 -18 35 -3 66 -10 67 -15 2 -5 12 -9 23 -9
10 0 19 -4 19 -10 0 -5 7 -10 15 -10 8 0 15 -6 15 -14 0 -9 17 -16 48 -20 31
-4 53 -13 62 -26 8 -11 22 -20 32 -20 10 0 18 -4 18 -10 0 -5 9 -10 20 -10 11
0 20 -4 20 -10 0 -5 9 -10 20 -10 13 0 20 -7 20 -20 0 -13 7 -20 19 -20 11 0
22 -6 25 -12 5 -10 7 -10 12 0 10 21 21 14 27 -17 4 -18 14 -32 27 -36 13 -4
20 -15 20 -31 0 -17 5 -24 20 -24 11 0 36 -16 54 -35 19 -19 41 -35 50 -35 9
0 16 -4 16 -10 0 -5 -4 -10 -10 -10 -18 0 -10 -29 10 -35 11 -3 20 -15 20 -26
0 -10 5 -19 10 -19 6 0 10 -7 10 -16 0 -9 8 -24 18 -33 11 -9 22 -28 26 -43 3
-16 11 -28 16 -28 6 0 10 -7 10 -15 0 -8 7 -15 15 -15 10 0 15 -11 15 -35 0
-19 5 -35 10 -35 6 0 10 -7 10 -15 0 -8 4 -15 9 -15 6 0 13 -21 17 -47 4 -27
12 -51 18 -55 8 -6 6 -11 -4 -19 -11 -8 -12 -12 -2 -16 6 -2 12 -13 12 -23 0
-10 6 -21 13 -24 10 -5 10 -7 0 -12 -15 -7 -17 -44 -3 -44 6 0 10 -7 10 -15 0
-8 7 -15 15 -15 9 0 15 -9 15 -25 0 -16 -6 -25 -15 -25 -13 0 -15 -23 -15
-150 0 -127 2 -150 15 -150 9 0 15 -9 15 -25 0 -16 -6 -25 -15 -25 -8 0 -15
-7 -15 -15 0 -8 -4 -15 -10 -15 -14 0 -12 -37 3 -44 10 -5 10 -7 0 -12 -7 -3
-13 -14 -13 -24 0 -10 -6 -21 -12 -23 -10 -4 -9 -8 2 -16 12 -9 13 -12 1 -20
-7 -5 -16 -29 -18 -55 -3 -25 -10 -46 -14 -46 -5 0 -9 -11 -9 -25 0 -14 -4
-25 -10 -25 -5 0 -10 -11 -10 -24 0 -17 -7 -26 -24 -30 -19 -5 -26 -15 -31
-44 -3 -21 -15 -45 -26 -52 -10 -8 -19 -22 -19 -32 0 -10 -4 -18 -10 -18 -5 0
-10 -9 -10 -19 0 -11 -9 -23 -20 -26 -12 -4 -20 -15 -20 -28 0 -13 -10 -29
-21 -37 -12 -8 -27 -21 -35 -27 -7 -7 -17 -13 -23 -13 -6 0 -11 -4 -11 -10 0
-5 -7 -10 -15 -10 -8 0 -15 -7 -15 -15 0 -8 -4 -15 -10 -15 -5 0 -10 -5 -10
-11 0 -6 -7 -17 -15 -25 -8 -9 -15 -24 -15 -35 0 -21 -15 -26 -24 -6 -5 10 -7
10 -12 0 -3 -7 -12 -13 -21 -13 -8 0 -28 -13 -43 -30 -15 -16 -35 -30 -44 -30
-9 0 -16 -4 -16 -10 0 -5 -9 -10 -20 -10 -11 0 -20 -4 -20 -10 0 -5 -9 -10
-19 -10 -11 0 -26 -7 -35 -15 -8 -8 -22 -15 -30 -15 -9 0 -16 -7 -16 -15 0 -9
-9 -15 -25 -15 -14 0 -25 -4 -25 -10 0 -5 -9 -10 -19 -10 -11 0 -21 -4 -23 -9
-1 -5 -32 -12 -67 -15 -36 -3 -68 -11 -73 -18 -6 -10 -10 -10 -19 2 -8 11 -12
12 -16 3 -2 -7 -13 -13 -24 -13 -10 0 -19 -4 -19 -10 0 -5 -7 -10 -15 -10 -8
0 -15 5 -15 10 0 6 -32 10 -75 10 -43 0 -75 -4 -75 -10 0 -5 -7 -10 -15 -10
-8 0 -15 -7 -15 -15 0 -8 -9 -15 -20 -15 -11 0 -20 7 -20 15 0 8 -7 15 -15 15
-8 0 -15 5 -15 10 0 15 -97 12 -104 -2 -5 -10 -7 -10 -12 0 -3 6 -17 12 -30
12 -13 0 -24 4 -24 9 0 4 -32 11 -72 14 -41 4 -75 12 -80 19 -6 10 -10 10 -19
-2 -8 -11 -12 -12 -16 -2 -2 6 -18 12 -34 12 -16 0 -29 5 -29 10 0 6 -7 10
-15 10 -8 0 -15 7 -15 15 0 8 -9 15 -20 15 -11 0 -20 4 -20 9 0 5 -18 11 -40
15 -22 3 -40 11 -40 16 0 6 -8 10 -18 10 -10 0 -24 9 -32 20 -8 11 -22 20 -32
20 -10 0 -18 5 -18 10 0 6 -11 10 -25 10 -18 0 -25 5 -25 20 0 11 -7 20 -15
20 -8 0 -15 9 -15 20 0 11 -4 20 -8 20 -13 0 -52 36 -52 47 0 16 -34 50 -57
57 -13 4 -23 12 -23 17 0 5 -7 9 -15 9 -8 0 -15 5 -15 10 0 6 -9 10 -20 10
-16 0 -20 7 -20 30 0 17 -4 30 -10 30 -5 0 -10 8 -10 18 0 10 -9 24 -20 32
-11 8 -20 22 -20 32 0 10 -4 18 -10 18 -5 0 -10 9 -10 20 0 11 -4 20 -10 20
-5 0 -10 7 -10 15 0 8 -4 15 -9 15 -5 0 -12 23 -16 50 -5 33 -12 50 -21 50 -8
0 -14 9 -14 20 0 11 -4 20 -10 20 -5 0 -10 13 -10 29 0 16 -6 32 -12 34 -10 4
-9 8 2 16 10 8 12 13 4 19 -6 4 -14 29 -16 56 -3 27 -12 53 -19 58 -11 7 -11
11 -1 15 15 6 17 103 2 103 -5 0 -10 11 -10 25 0 14 -4 25 -10 25 -5 0 -10 23
-10 50 0 28 5 50 10 50 6 0 10 11 10 25 0 14 5 25 10 25 15 0 13 97 -2 103
-10 4 -10 8 1 15 8 6 15 33 17 68 2 32 8 60 14 62 5 2 10 15 10 28 0 13 5 24
10 24 6 0 10 11 10 25 0 15 6 25 15 25 10 0 16 17 21 60 4 33 11 60 15 60 5 0
9 7 9 15 0 8 5 15 10 15 6 0 10 8 10 18 0 10 9 24 20 32 11 8 20 22 20 32 0
10 5 18 10 18 6 0 10 7 10 16 0 9 10 25 22 35 11 11 16 19 10 19 -7 0 -12 7
-12 15 0 10 10 15 29 15 24 0 30 5 35 30 4 24 11 30 30 30 25 0 56 23 56 42 0
12 39 48 52 48 4 0 8 14 8 30 0 20 5 30 15 30 8 0 15 -6 16 -12 0 -10 2 -10 6
0 2 6 11 12 19 12 19 0 84 65 84 85 0 18 16 20 24 3 5 -10 7 -10 12 0 3 6 12
12 20 12 8 0 14 4 14 9 0 5 20 12 45 15 29 5 45 12 45 22 0 8 7 14 15 14 8 0
15 5 15 10 0 6 14 10 30 10 17 0 30 4 30 9 0 4 30 11 67 14 38 4 69 11 71 17
5 14 42 12 43 -2 0 -10 2 -10 6 0 2 6 15 12 28 12 13 0 26 6 29 13 5 10 7 10
12 0 7 -15 104 -18 104 -3 0 6 7 10 15 10 8 0 15 7 15 15 0 10 11 15 35 15 24
0 35 -5 35 -15z m2180 -2775 c0 -5 -4 -10 -10 -10 -5 0 -10 5 -10 10 0 6 5 10
10 10 6 0 10 -4 10 -10z m-210 -900 c0 -5 -4 -10 -10 -10 -5 0 -10 5 -10 10 0
6 5 10 10 10 6 0 10 -4 10 -10z"/>
</g>
</svg>
