<?xml version="1.0" standalone="no"?><!DOCTYPE svg PUBLIC "-//W3C//DTD SVG 1.1//EN" "http://www.w3.org/Graphics/SVG/1.1/DTD/svg11.dtd"><svg t="1701523305761" class="icon" viewBox="0 0 1024 1024" version="1.1" xmlns="http://www.w3.org/2000/svg" p-id="1423" width="16" height="16" xmlns:xlink="http://www.w3.org/1999/xlink"><path d="M441.40391226 935.57651794H88.42348206V582.59608774c0-21.17882588-14.11921588-35.29804179-35.29804176-35.29804595s-35.29804179 14.11921588-35.29804591 35.29804595v388.27847196c0 21.17882588 14.11921588 35.29804179 35.29804591 35.29804591h388.27847196c21.17882588 0 35.29804179-14.11921588 35.29804595-35.29804591s-14.11921588-35.29804179-35.29804595-35.29804176z m529.47064744-917.74912355H582.59608774c-21.17882588 0-35.29804179 14.11921588-35.29804595 35.29804591s14.11921588 35.29804179 35.29804595 35.29804176h352.9804302v352.9804302c0 21.17882588 14.11921588 35.29804179 35.29804176 35.29804595s35.29804179-14.11921588 35.29804591-35.29804595V53.1254403c0-21.17882588-14.11921588-35.29804179-35.29804591-35.29804591z" fill="#AAAAAA" p-id="1424"></path></svg>