<?xml version="1.0" standalone="no"?><!DOCTYPE svg PUBLIC "-//W3C//DTD SVG 1.1//EN" "http://www.w3.org/Graphics/SVG/1.1/DTD/svg11.dtd"><svg t="1702708809338" class="icon" viewBox="0 0 1034 1024" version="1.1" xmlns="http://www.w3.org/2000/svg" p-id="4229" xmlns:xlink="http://www.w3.org/1999/xlink" width="16.15625" height="16"><path d="M930.12684 267.916426H104.437091c-18.445135 0-33.394934 14.949799-33.394934 33.394934s14.949799 33.394934 33.394934 33.394934h61.535732v533.773497c0 64.530145 52.496837 117.026981 117.026981 117.026981h468.575454c64.530145 0 117.026981-52.496837 117.026981-117.026981V334.706294h61.535733c18.445135 0 33.394934-14.949799 33.394934-33.394934s-14.949799-33.394934-33.394934-33.394934zM801.801239 868.479791c0 27.695532-22.541581 50.237113-50.237112 50.237113H282.999804c-27.695532 0-50.237113-22.541581-50.237112-50.237113V334.706294h569.038547v533.773497z m-535.955299-750.718121c0-18.445135 14.949799-33.394934 33.394934-33.394934h436.082183c18.445135 0 33.394934 14.949799 33.394934 33.394934s-14.949799 33.394934-33.394934 33.394934H299.240874c-18.445135 0-33.394934-14.949799-33.394934-33.394934z m90.478008 584.266637V454.928057c0-18.445135 14.949799-33.394934 33.394934-33.394934s33.394934 14.949799 33.394935 33.394934v247.10025c0 18.445135-14.949799 33.394934-33.394935 33.394935s-33.394934-14.949799-33.394934-33.394935z m255.115034 0V454.928057c0-18.445135 14.949799-33.394934 33.394935-33.394934s33.394934 14.949799 33.394934 33.394934v247.10025c0 18.445135-14.949799 33.394934-33.394934 33.394935s-33.394934-14.949799-33.394935-33.394935z" p-id="4230" fill="#AAAAAA"></path></svg>